IKResults
version=1
nRows=13
nColumns=40
inDegrees=yes

Units are S.I. units (second, meters, Newtons, ...)
Angles are in degrees.

endheader
time	pelvis_tilt	pelvis_list	pelvis_rotation	pelvis_tx	pelvis_ty	pelvis_tz	hip_flexion_r	hip_adduction_r	hip_rotation_r	knee_angle_r	knee_angle_r_beta	ankle_angle_r	subtalar_angle_r	mtp_angle_r	hip_flexion_l	hip_adduction_l	hip_rotation_l	knee_angle_l	knee_angle_l_beta	ankle_angle_l	subtalar_angle_l	mtp_angle_l	lumbar_extension	lumbar_bending	lumbar_rotation	arm_flex_r	arm_add_r	arm_rot_r	elbow_flex_r	pro_sup_r	wrist_flex_r	wrist_dev_r	arm_flex_l	arm_add_l	arm_rot_l	elbow_flex_l	pro_sup_l	wrist_flex_l	wrist_dev_l
      1.16000000	     17.63462537	      3.61886524	     -5.66914177	      0.23263089	      0.94549132	      1.44344731	    -21.52270147	     -8.52660798	     -6.42543182	    -49.98780402	     -0.87245177	    -18.17801622	    -15.57076411	     16.69948563	     -5.61650750	     -4.56960245	     20.88770510	    -16.67679318	     -0.29106495	      3.33971665	     -1.41583707	     -6.32458566	    -21.27585831	     -7.60557030	      3.72053835	      2.04565558	    -12.75593141	      1.30414277	     35.00565876	     89.95437384	      0.00000000	      0.00000000	     -7.96712179	      7.73201769	      2.82489206	     14.80962198	     89.95437384	      0.00000000	      0.00000000
      1.17000000	     17.59818767	      3.31061295	     -5.74332267	      0.24354806	      0.94671954	      1.44238579	    -19.79995193	     -8.27423876	     -5.87994774	    -52.47320747	     -0.91583024	    -18.61044493	    -16.64243389	     20.09846911	     -6.47500726	     -4.32102070	     21.42923478	    -16.52436125	     -0.28840451	      3.63230416	     -2.42577111	     -6.31251335	    -21.30058347	     -7.22681874	      3.56355244	      1.42274572	    -12.65222291	      1.96599151	     34.00420162	     89.95437384	      0.00000000	      0.00000000	     -7.16958188	      7.91443137	      3.03361006	     15.52162708	     89.95437384	      0.00000000	      0.00000000
      1.18000000	     17.81749596	      3.01601463	     -5.71784049	      0.25429471	      0.94826588	      1.44126660	    -18.55374858	     -8.00618687	     -5.52937791	    -54.51454985	     -0.95145839	    -17.61253002	    -17.18788954	     19.81903630	     -7.71459894	     -4.22245223	     21.30988126	    -16.12036556	     -0.28135346	      3.98278804	     -2.84912943	     -6.29861784	    -21.65421614	     -6.85922114	      3.32979808	      0.83573753	    -12.47887791	      2.31851032	     32.98971586	     89.95437384	      0.00000000	      0.00000000	     -6.25953398	      8.14684278	      3.06535387	     16.23474933	     89.95437384	      0.00000000	      0.00000000
      1.19000000	     17.85955043	      2.79392020	     -5.78324699	      0.26466766	      0.94929238	      1.44010807	    -17.02506311	     -7.79099299	     -5.05574871	    -56.51619446	     -0.98639367	    -15.41702937	    -17.42021310	     19.38856994	     -8.76614374	     -4.20083717	     21.41430581	    -15.56976119	     -0.27174360	      4.25270532	     -3.26927522	     -6.26710482	    -21.80978033	     -6.55055105	      3.01348334	      0.38528874	    -12.31506584	      2.75465059	     31.95167117	     89.95437384	      0.00000000	      0.00000000	     -5.41515146	      8.36377571	      3.15350354	     17.04053086	     89.95437384	      0.00000000	      0.00000000
      1.20000000	     18.05225786	      2.53064599	     -5.72469184	      0.27513461	      0.95046676	      1.43891941	    -15.77829757	     -7.56809528	     -4.92907597	    -58.09149797	     -1.01388791	    -13.30634816	    -17.49992637	     18.95169732	     -9.90723197	     -4.10118469	     21.36079853	    -15.20973731	     -0.26545999	      4.56634880	     -3.63376539	     -6.25860049	    -22.14463392	     -6.19365286	      2.71598850	     -0.17827581	    -12.15388479	      3.05909809	     30.98297625	     89.95437384	      0.00000000	      0.00000000	     -4.40007662	      8.59506647	      3.45989962	     17.71887527	     89.95437384	      0.00000000	      0.00000000
      1.21000000	     18.23510243	      2.28148381	     -5.59936909	      0.28545515	      0.95155030	      1.43778352	    -14.54631342	     -7.27233564	     -4.78344945	    -59.37864568	     -1.03635287	    -11.40577376	    -17.35138003	     18.57893002	    -11.05540695	     -4.00245114	     21.34235040	    -14.80653864	     -0.25842285	      4.78523918	     -3.98271701	     -6.24701516	    -22.47668020	     -5.84789348	      2.25586173	     -0.60838066	    -11.93016729	      3.33634501	     29.90424870	     89.95437384	      0.00000000	      0.00000000	     -3.41554305	      8.83112611	      3.65435247	     18.36522099	     89.95437384	      0.00000000	      0.00000000
      1.22000000	     18.45924048	      2.03948356	     -5.27480677	      0.29566636	      0.95255827	      1.43615711	    -13.40197483	     -7.01968491	     -4.98445683	    -60.34218114	     -1.05316974	    -10.50200769	    -17.33733049	     18.26717688	    -12.10084363	     -3.83008746	     21.42621723	    -14.67628044	     -0.25614942	      5.01330901	     -4.05421159	     -6.20483645	    -22.90484252	     -5.40878702	      1.68695906	     -1.24693544	    -11.78854327	      3.47857740	     29.18603058	     89.95437384	      0.00000000	      0.00000000	     -2.28865110	      9.07027390	      3.74088520	     18.93558067	     89.95437384	      0.00000000	      0.00000000
      1.23000000	     18.57390979	      1.77655300	     -5.02219565	      0.30610816	      0.95339428	      1.43525387	    -12.28103778	     -6.39908396	     -4.62808191	    -60.96977985	     -1.06412340	     -8.12581884	    -17.15647504	     17.83364599	    -13.24109568	     -3.72050539	     20.95734270	    -14.14986853	     -0.24696179	      5.39478109	     -4.58736111	     -6.21253154	    -23.13217864	     -5.04650592	      1.19088940	     -1.73421761	    -11.54515501	      3.78453221	     28.04995071	     89.95437384	      0.00000000	      0.00000000	     -1.27295179	      9.35082820	      4.21589963	     19.61510580	     89.95437384	      0.00000000	      0.00000000
      1.24000000	     18.67198954	      1.54888257	     -4.68812058	      0.31605743	      0.95407778	      1.43386364	    -11.03491758	     -6.13027483	     -4.89676446	    -61.45529867	     -1.07259730	     -7.01338081	    -17.06547376	     17.49154723	    -14.14575667	     -3.53847456	     21.02620613	    -13.95642208	     -0.24358552	      5.62961948	     -4.63702142	     -6.15750764	    -23.43038312	     -4.64086176	      0.64217371	     -2.36468589	    -11.38538023	      3.95109180	     27.32550577	     89.95437384	      0.00000000	      0.00000000	     -0.13131048	      9.62862096	      4.40383285	     20.24963360	     89.95437384	      0.00000000	      0.00000000
      1.25000000	     18.70280393	      1.21806862	     -4.31077492	      0.32618086	      0.95468536	      1.43296020	     -9.91515352	     -5.39663222	     -4.74817867	    -61.54612561	     -1.07418253	     -4.40787560	    -16.49215587	     16.92744044	    -15.16349484	     -3.29193207	     20.51760473	    -13.42591623	     -0.23432644	      5.97090117	     -5.04147399	     -6.14704612	    -23.61151370	     -4.17265394	      0.04873968	     -2.87326110	    -11.16847646	      4.29578797	     26.33105099	     89.95437384	      0.00000000	      0.00000000	      0.94367825	      9.93386539	      4.86661877	     20.86626337	     89.95437384	      0.00000000	      0.00000000
      1.26000000	     18.76573176	      0.96325396	     -3.92474589	      0.33611119	      0.95516830	      1.43184929	     -8.79566583	     -4.89779283	     -4.83122301	    -61.43635562	     -1.07226669	     -2.78242593	    -15.96477828	     16.49238066	    -16.13340503	     -3.08830722	     20.24076870	    -13.00743546	     -0.22702258	      6.25218977	     -5.24693007	     -6.10969678	    -23.85130435	     -3.75978252	     -0.54894172	     -3.48050339	    -11.05330223	      4.68938987	     25.62599061	     89.95437384	      0.00000000	      0.00000000	      2.03245142	     10.21090995	      5.41564890	     21.58643366	     89.95437384	      0.00000000	      0.00000000
      1.27000000	     18.81496759	      0.78603888	     -3.42868137	      0.34629816	      0.95550378	      1.43045785	     -7.73752825	     -4.57161778	     -5.21106263	    -61.06046156	     -1.06570610	     -1.08269933	    -15.42062756	     15.98446795	    -17.07809034	     -2.93971849	     19.73706317	    -12.57849715	     -0.21953619	      6.51132594	     -5.21298694	     -6.07199161	    -24.02805448	     -3.35738234	     -1.24652764	     -4.15995276	    -10.92965353	      4.91094124	     24.96951959	     89.95437384	      0.00000000	      0.00000000	      3.11637103	     10.41482678	      6.18599561	     22.24412600	     89.95437384	      0.00000000	      0.00000000
      1.28000000	     18.64817078	      0.63437420	     -3.17766638	      0.35601030	      0.95536293	      1.42959511	     -6.32349536	     -4.19381038	     -5.25715727	    -60.62459011	     -1.05809871	     -0.39644636	    -15.23692761	     15.64559351	    -17.69927598	     -2.81718779	     19.52442058	    -12.32176012	     -0.21505528	      6.90611858	     -5.35898164	     -6.04465890	    -24.00209648	     -3.07720246	     -1.63670575	     -4.83510256	    -10.80145378	      5.09822325	     24.30835745	     89.95437384	      0.00000000	      0.00000000	      4.27779113	     10.71085518	      6.35663876	     22.87406410	     89.95437384	      0.00000000	      0.00000000
